#!OML:ASF F:\twosubjects\two\Thursday\Session 1\Rory.ASF
:FULLY-SPECIFIED
:DEGREES
227
root 23.3928 17.5886 -1.4583 -153.5 -76.5614 162.562
lowerback 19.9711 -0.382036 -2.4592
upperback 8.13943 -1.64066 -1.04189
thorax -2.348 -1.11072 0.651537
lowerneck -6.19207 14.2432 9.76203
upperneck -1.98742 18.9192 -19.8771
head 3.35472 9.0833 -6.25941
rclavicle 1.55549e-014 -1.27222e-014
rhumerus -37.4416 2.34525 -81.7854
rradius 70.1937
rwrist 4.30527
rhand -19.4042 26.256
rfingers 7.12502
rthumb 6.915 -3.61101
lclavicle 1.55549e-014 -1.27222e-014
lhumerus -1.07273 8.81314 80.1267
lradius 103.494
lwrist -32.085
lhand -24.4321 50.701
lfingers 7.12502
lthumb 2.06001 80.6708
rfemur -37.57 -9.39082 18.4526
rtibia 53.1164
rfoot -19.6829 -13.8482
rtoes -12.7979
lfemur -27.7878 7.99638 -12.5618
ltibia 50.2342
lfoot -20.9171 17.2283
ltoes 19.589
228
root 23.4158 17.5481 -1.50057 -153.644 -76.3982 162.818
lowerback 20.464 -0.412578 -2.20812
upperback 8.16633 -1.6586 -0.961776
thorax -2.57411 -1.11886 0.609415
lowerneck -6.19099 14.2085 9.41866
upperneck -2.55596 18.8075 -19.9671
head 3.14917 9.05006 -6.26995
rclavicle -1.10822e-014 2.09221e-014
rhumerus -37.3818 2.11974 -81.7186
rradius 70.8945
rwrist 4.68819
rhand -19.8258 25.9401
rfingers 7.12502
rthumb 6.50799 -3.93987
lclavicle -1.10822e-014 2.09221e-014
lhumerus -0.960669 9.38899 80.0466
lradius 104.069
lwrist -31.3081
lhand -23.8616 49.457
lfingers 7.12502
lthumb 2.61106 79.4208
rfemur -38.0493 -9.32492 18.5993
rtibia 53.6795
rfoot -20.3004 -13.0711
rtoes -9.29973
lfemur -29.0143 8.45671 -13.1398
ltibia 52.05
lfoot -21.6466 15.2385
ltoes 18.3731
229
root 23.4343 17.5216 -1.54647 -153.984 -76.19 163.067
lowerback 21.0858 -0.381964 -1.95376
upperback 8.2873 -1.60981 -0.89594
thorax -2.76503 -1.10079 0.536769
lowerneck -6.1559 14.2115 9.28947
upperneck -3.0527 18.7579 -20.3034
head 3.01798 9.04165 -6.37387
rclavicle -2.83641e-014 4.2366e-015
rhumerus -36.9873 2.37823 -81.2868
rradius 71.139
rwrist 5.4373
rhand -19.8002 25.733
rfingers 7.12502
rthumb 6.53271 -4.14627
lclavicle -2.83641e-014 4.2366e-015
lhumerus -0.566022 9.96571 80.0853
lradius 104.523
lwrist -30.6106
lhand -23.0447 48.4157
lfingers 7.12502
lthumb 3.39994 78.3684
rfemur -38.2501 -9.13976 18.7006
rtibia 54.1854
rfoot -20.8168 -12.4519
rtoes -4.67805
lfemur -29.954 8.79219 -13.8143
ltibia 53.7896
lfoot -21.7385 14.1315
ltoes 14.5098
230
root 23.4491 17.5018 -1.61542 -155.455 -75.8861 164.402
lowerback 21.6128 -0.143402 -1.66026
upperback 8.51532 -1.28826 -0.824343
thorax -2.79556 -0.954917 0.379943
lowerneck -6.29466 14.1659 9.48604
upperneck -3.30899 18.656 -20.7611
head 3.02428 8.98338 -6.54544
rclavicle -1.3418e-014 2.42517e-014
rhumerus -36.4059 2.33425 -80.822
rradius 71.1734
rwrist 5.37914
rhand -19.8131 25.7957
rfingers 7.12502
rthumb 6.52029 -4.08394
lclavicle -1.3418e-014 2.42517e-014
lhumerus 0.167806 10.0277 80.2914
lradius 104.376
lwrist -31.975
lhand -22.7229 49.3841
lfingers 7.12502
lthumb 3.71067 79.3315
rfemur -38.4267 -8.96268 19.2224
rtibia 54.6474
rfoot -20.9171 -12.4337
rtoes -4.82029
lfemur -30.7729 9.52733 -14.2485
ltibia 55.5041
lfoot -21.5466 13.3673
ltoes 11.013
231
root 23.4725 17.4573 -1.65095 -156.735 -75.7897 165.837
lowerback 21.9864 -0.185668 -0.897513
upperback 8.66045 -1.22249 -0.854905
thorax -2.84155 -0.918276 -0.0969823
lowerneck -6.40881 14.1324 9.65446
upperneck -3.60317 18.5588 -21.0151
head 2.98917 8.93539 -6.65668
rclavicle -4.54223e-014 3.39922e-014
rhumerus -35.9089 2.30804 -80.7299
rradius 71.3636
rwrist 4.52725
rhand -20.6926 26.1575
rfingers 7.12502
rthumb 5.67118 -3.74656
lclavicle -4.54223e-014 3.39922e-014
lhumerus 0.978266 10.4398 80.5695
lradius 104.136
lwrist -33.3862
lhand -23.2878 50.5882
lfingers 7.12502
lthumb 3.16515 80.5445
rfemur -39.0411 -9.36911 19.9388
rtibia 55.0652
rfoot -20.5951 -12.5651
rtoes -8.70292
lfemur -32.0905 9.99248 -14.6719
ltibia 57.2515
lfoot -21.8815 11.9439
ltoes 11.4783
232
root 23.4941 17.4007 -1.68661 -156.987 -75.6057 166.447
lowerback 22.0984 -0.388135 -0.465737
upperback 8.65045 -1.40999 -1.0191
thorax -2.92049 -1.0008 -0.471112
lowerneck -5.94112 14.1917 10.0665
upperneck -4.2198 18.565 -21.3593
head 2.81358 8.9859 -6.86605
rclavicle 2.80535e-014 -3.52843e-015
rhumerus -35.6124 1.73013 -81.2292
rradius 71.5074
rwrist 5.89436
rhand -21.2915 26.4907
rfingers 7.12502
rthumb 5.09289 -3.42806
lclavicle 2.80535e-014 -3.52843e-015
lhumerus 1.18451 11.2667 80.167
lradius 104.377
lwrist -33.1646
lhand -23.4993 50.8231
lfingers 7.12502
lthumb 2.96095 80.7823
rfemur -39.7172 -9.36953 20.2648
rtibia 55.4762
rfoot -21.0157 -12.0272
rtoes -6.58557
lfemur -33.6064 10.4324 -15.415
ltibia 58.8844
lfoot -22.3414 10.5487
ltoes 11.1824
233
root 23.5054 17.3733 -1.7253 -156.633 -75.2503 166.388
lowerback 22.2383 -0.483477 -0.258065
upperback 8.5523 -1.4999 -1.23121
thorax -3.10732 -1.03578 -0.790297
lowerneck -5.38855 14.2437 10.4298
upperneck -4.62096 18.6036 -21.5815
head 2.67326 9.05154 -7.02909
rclavicle 1.86361e-015 4.11577e-014
rhumerus -35.5659 0.607084 -81.3321
rradius 71.6992
rwrist 9.05799
rhand -19.7947 26.874
rfingers 7.12502
rthumb 6.53797 -3.00508
lclavicle 1.86361e-015 4.11577e-014
lhumerus 0.859991 11.5206 79.4331
lradius 104.648
lwrist -32.6877
lhand -23.6063 52.0471
lfingers 7.12502
lthumb 2.85757 82.0078
rfemur -40.2562 -8.97946 20.241
rtibia 55.9072
rfoot -21.5489 -11.1938
rtoes -0.875339
lfemur -34.8936 11.0265 -16.5481
ltibia 60.2371
lfoot -22.4349 9.87048
ltoes 7.31617
234
root 23.5088 17.3874 -1.77797 -156.459 -74.8412 166.268
lowerback 22.4932 -0.307727 -0.332457
upperback 8.63094 -1.30546 -1.18729
thorax -3.14425 -0.948987 -0.74505
lowerneck -5.46421 14.1495 10.1028
upperneck -4.7354 18.4607 -21.5187
head 2.59194 8.98488 -6.98161
rclavicle 3.54334e-014 2.3059e-014
rhumerus -35.3698 1.88538 -81.1309
rradius 71.8209
rwrist 4.93716
rhand -22.4469 26.6395
rfingers 7.12502
rthumb 3.97723 -3.3031
lclavicle 3.54334e-014 2.3059e-014
lhumerus 1.03586 11.6927 79.5078
lradius 104.659
lwrist -32.7001
lhand -23.3937 52.3781
lfingers 7.12502
lthumb 3.06294 82.3358
rfemur -40.616 -8.70977 20.4129
rtibia 56.3327
rfoot -21.0228 -11.7983
rtoes -3.10207
lfemur -35.6405 11.5864 -17.6007
ltibia 61.2378
lfoot -22.8846 8.79429
ltoes 6.05059
235
root 23.5096 17.3951 -1.83892 -157.162 -74.5295 166.936
lowerback 22.745 -0.0885964 -0.294315
upperback 8.80674 -1.03593 -1.03558
thorax -3.07282 -0.829582 -0.669019
lowerneck -5.91186 14.0035 9.71741
upperneck -4.66818 18.254 -21.4715
head 2.61206 8.85488 -6.90619
rclavicle -4.14963e-014 -2.33572e-014
rhumerus -34.5212 2.56972 -80.6777
rradius 71.3189
rwrist 3.28721
rhand -23.2479 26.6146
rfingers 7.12502
rthumb 3.20367 -3.34109
lclavicle -4.14963e-014 -2.33572e-014
lhumerus 1.68935 12.1751 80.1084
lradius 104.53
lwrist -32.5331
lhand -23.3952 51.2285
lfingers 7.12502
lthumb 3.06144 81.1863
rfemur -40.7582 -8.4235 20.8438
rtibia 56.6912
rfoot -20.6166 -12.5357
rtoes -6.70552
lfemur -36.1938 12.1251 -18.3382
ltibia 61.9801
lfoot -23.4828 7.68744
ltoes 5.29927
236
root 23.5081 17.3714 -1.8583 -156.903 -74.4259 166.573
lowerback 23.2191 -0.211664 0.0905427
upperback 8.86493 -1.13975 -1.11538
thorax -3.2523 -0.879874 -0.94247
lowerneck -5.93117 13.9572 9.58561
upperneck -4.78348 18.1764 -21.5167
head 2.56314 8.82077 -6.913
rclavicle -1.42131e-014 -2.57426e-014
rhumerus -35.3365 3.13249 -80.4141
rradius 74.7374
rwrist 3.5543
rhand -22.0832 24.423
rfingers 7.12502
rthumb 4.32839 -5.5128
lclavicle -1.42131e-014 -2.57426e-014
lhumerus 2.11467 12.8632 80.6671
lradius 104.369
lwrist -32.354
lhand -24.1273 50.8938
lfingers 7.12502
lthumb 2.35437 80.8605
rfemur -40.7993 -8.90566 20.8289
rtibia 56.9586
rfoot -20.9034 -11.8035
rtoes -5.86817
lfemur -36.8342 12.1209 -19.4956
ltibia 62.6361
lfoot -23.7433 6.88553
ltoes 3.16774
237
root 23.5018 17.3594 -1.90098 -155.354 -74.1495 164.928
lowerback 23.4851 -0.234356 -0.368597
upperback 8.93685 -1.28988 -1.17302
thorax -3.30233 -0.967123 -0.701315
lowerneck -5.63748 13.9711 9.4573
upperneck -5.13116 18.164 -21.5955
head 2.40909 8.84887 -6.9514
rclavicle 2.10712e-014 1.98785e-014
rhumerus -34.0892 1.93274 -79.8793
rradius 72.3633
rwrist 4.98813
rhand -22.4787 25.9891
rfingers 7.12502
rthumb 3.94649 -3.95406
lclavicle 2.10712e-014 1.98785e-014
lhumerus 2.41591 13.8543 81.255
lradius 104.203
lwrist -33.304
lhand -23.7722 50.7457
lfingers 7.12502
lthumb 2.69736 80.7083
rfemur -40.7547 -9.33037 20.4538
rtibia 57.1484
rfoot -21.2275 -11.0958
rtoes -4.78176
lfemur -37.3524 12.2186 -20.9554
ltibia 63.1573
lfoot -23.8093 5.70664
ltoes 1.92794
